<?xml version="1.0" encoding="UTF-8"?>
<svg version="1.1" xmlns="http://www.w3.org/2000/svg" width="512" height="512">
<path d="M0 0 C0.68513672 0.20898926 1.37027344 0.41797852 2.07617188 0.63330078 C18.66314737 5.8706736 32.8115849 14.80776157 46 26 C46.80050781 26.639375 47.60101563 27.27875 48.42578125 27.9375 C51.1038062 30.25595046 52.78133085 31.76295738 53.41015625 35.3203125 C53.43577617 37.59682558 53.27559183 39.74277168 53 42 C53 46.11966444 55.15840542 48.36653983 57.5 51.5625 C62 57.74493243 62 57.74493243 62 60 C63.216875 59.896875 64.43375 59.79375 65.6875 59.6875 C68.99289895 59.40738145 69.89432912 59.91655867 72.5625 62.0234375 C75.41937348 65.51211953 76.83025395 68.72541823 78.3125 72.9375 C78.57611328 73.62779297 78.83972656 74.31808594 79.11132812 75.02929688 C80.60573172 79.12435087 81.4707646 82.58255139 81 87 C79.125 89.875 79.125 89.875 77 92 C76.34 92 75.68 92 75 92 C75.144375 92.56847656 75.28875 93.13695313 75.4375 93.72265625 C76.61545505 98.62262205 77.21427527 102.9645312 77 108 C77.94875 108.103125 78.8975 108.20625 79.875 108.3125 C83 109 83 109 85 112 C85.25651747 114.86046812 85.38074277 117.57530163 85.375 120.4375 C85.37338867 121.2728125 85.37177734 122.108125 85.37011719 122.96875 C85.11725783 136.27609327 82.27448038 149.76769444 77 162 C79.76605639 163.71677553 79.76605639 163.71677553 83 165 C86.33309489 163.84952346 88.22427565 161.88303173 90.5625 159.3125 C102.79213687 146.81109342 120.16475154 139.902561 137.5 139.5625 C138.18280029 139.54018311 138.86560059 139.51786621 139.5690918 139.49487305 C142.7166065 139.50936329 144.631129 139.72936106 147.19458008 141.6101532 C149.61514269 144.81426862 149.44574716 146.74336693 149.35546875 150.73364258 C149.34653091 151.4026358 149.33759308 152.07162903 149.3283844 152.76089478 C149.30761086 154.21185524 149.27826716 155.66271276 149.24133301 157.11335182 C149.18679709 159.42431713 149.16424386 161.73353713 149.15136719 164.04508972 C149.11230736 170.61571593 149.04296802 177.18468233 148.88720703 183.75366211 C147.39168893 205.41960803 147.39168893 205.41960803 155.796875 224.359375 C157.79815755 226.3277108 159.88810339 228.1461707 162 230 C166.95734223 236.4806987 170.62088675 243.99667617 174.3125 251.25 C174.63831055 251.88736084 174.96412109 252.52472168 175.29980469 253.18139648 C177.67478731 257.9814069 179.41328978 262.88898349 181 268 C182.06959961 267.97905273 183.13919922 267.95810547 184.24121094 267.93652344 C188.21438173 267.86405374 192.18749425 267.81817537 196.16113281 267.78027344 C197.87998279 267.76017372 199.59876452 267.73288911 201.31738281 267.69824219 C203.78988489 267.64964966 206.2614821 267.62701565 208.734375 267.609375 C209.88459137 267.57840729 209.88459137 267.57840729 211.05804443 267.54681396 C214.32960489 267.54544201 216.50089368 267.64852118 219.21372986 269.5589447 C221.61751467 272.8438743 221.49599402 275.60415143 221.33911133 279.51098633 C221.32337224 280.2569019 221.30763315 281.00281748 221.29141712 281.77133656 C221.04802867 290.80807397 220.32458658 299.81819298 219.57421875 308.82421875 C219.4242188 310.66882876 219.27446896 312.51345912 219.12495422 314.35810852 C218.81284422 318.18634092 218.49524886 322.01407085 218.17407227 325.84155273 C217.76408496 330.73710865 217.37205331 335.63392605 216.98445415 340.53129864 C216.68158363 344.32473289 216.3673627 348.11716397 216.04990578 351.90940285 C215.90044753 353.71553173 215.75494476 355.52199266 215.61356163 357.32877159 C215.4152571 359.84622707 215.20118433 362.3618721 214.9831543 364.87768555 C214.92848495 365.61486816 214.87381561 366.35205078 214.81748962 367.11157227 C214.40191653 371.66451486 213.3899637 375.09478406 211 379 C207.88045872 380.55977064 204.57040616 380.12104126 201.1484375 380.09765625 C200.37440582 380.0962413 199.60037415 380.09482635 198.80288696 380.09336853 C196.32688558 380.08776403 193.85097412 380.07521083 191.375 380.0625 C189.69791797 380.05748558 188.02083453 380.05292257 186.34375 380.04882812 C182.22913194 380.03779315 178.11458122 380.02052554 174 380 C173.71261963 380.91370361 173.42523926 381.82740723 173.12915039 382.76879883 C172.22620734 385.35268019 171.35552943 387.39587216 169.93359375 389.69921875 C169.53487061 390.34584473 169.13614746 390.9924707 168.7253418 391.65869141 C168.300354 392.32819824 167.87536621 392.99770508 167.4375 393.6875 C166.99639893 394.38794434 166.55529785 395.08838867 166.10083008 395.81005859 C161.51687492 402.95994756 156.32566449 409.48977321 150.47924805 415.66064453 C147.65949409 419.06852332 146.86318772 422.55393388 146.2265625 426.859375 C146.09722321 427.6254306 145.96788391 428.39148621 145.83462524 429.18075562 C145.41344666 431.70124079 145.01950682 434.2252157 144.625 436.75 C144.33362475 438.51577997 144.04029676 440.28123872 143.74511719 442.04638672 C142.96744563 446.72484246 142.21238126 451.40662939 141.46472168 456.08996582 C140.2263108 463.84475354 138.96886741 471.59639463 137.70037842 479.34631348 C137.25654531 482.08461758 136.8260664 484.82478248 136.39697266 487.56542969 C136.12444359 489.25462513 135.85151503 490.94375619 135.578125 492.6328125 C135.46272369 493.39363129 135.34732239 494.15445007 135.22842407 494.93832397 C134.48806562 499.42555431 133.34788788 503.09361328 131 507 C128.07881347 508.46059326 125.4893976 508.15156549 122.22705078 508.17700195 C121.18286484 508.18685875 121.18286484 508.18685875 120.11758423 508.19691467 C117.81015927 508.21665198 115.50279936 508.22831041 113.1953125 508.23828125 C112.01403589 508.24439454 112.01403589 508.24439454 110.80889511 508.25063133 C106.64164237 508.27149273 102.47442258 508.2857948 98.30712891 508.29516602 C94.00045458 508.30623794 89.6942959 508.34064613 85.38780403 508.38033772 C82.07810497 508.40646576 78.76852955 508.41485436 75.45873642 508.41844749 C73.87108752 508.42332244 72.28344447 508.43496228 70.69589615 508.45348549 C68.47409263 508.47780005 66.25363374 508.47692702 64.03173828 508.4699707 C62.76758087 508.47583694 61.50342346 508.48170319 60.20095825 508.48774719 C56.4294153 507.91305695 55.28076952 506.99487833 53 504 C52.17871094 501.66577148 52.17871094 501.66577148 51.734375 499.12109375 C51.56679688 498.20005859 51.39921875 497.27902344 51.2265625 496.33007812 C51.06929688 495.37552734 50.91203125 494.42097656 50.75 493.4375 C50.57726562 492.47908203 50.40453125 491.52066406 50.2265625 490.53320312 C49 483.5875496 49 483.5875496 49 480 C48.4738208 480.16081055 47.9476416 480.32162109 47.40551758 480.48730469 C37.46083246 483.4983075 27.5226606 486.28974196 17.3125 488.25 C16.16068237 488.47574707 16.16068237 488.47574707 14.9855957 488.70605469 C-1.52192725 491.72997059 -17.88065687 492.37366386 -34.625 492.3125 C-35.68681488 492.31034485 -36.74862976 492.3081897 -37.84262085 492.30596924 C-53.08519909 492.25629623 -68.00597356 492.00503334 -83 489 C-84.13211914 488.77473633 -85.26423828 488.54947266 -86.43066406 488.31738281 C-97.46213381 486.07235106 -108.37341749 483.75450234 -119 480 C-119.11275269 480.90709717 -119.11275269 480.90709717 -119.2277832 481.83251953 C-119.57806593 484.5982439 -119.94512938 487.36149567 -120.3125 490.125 C-120.43044922 491.07632812 -120.54839844 492.02765625 -120.66992188 493.0078125 C-121.37126515 498.18696283 -122.13349644 502.50496871 -125 507 C-127.92118653 508.46059326 -130.5106024 508.15156549 -133.77294922 508.17700195 C-134.81713516 508.18685875 -134.81713516 508.18685875 -135.88241577 508.19691467 C-138.18984073 508.21665198 -140.49720064 508.22831041 -142.8046875 508.23828125 C-143.98596411 508.24439454 -143.98596411 508.24439454 -145.19110489 508.25063133 C-149.35835763 508.27149273 -153.52557742 508.2857948 -157.69287109 508.29516602 C-161.99954542 508.30623794 -166.3057041 508.34064613 -170.61219597 508.38033772 C-173.92189503 508.40646576 -177.23147045 508.41485436 -180.54126358 508.41844749 C-182.12891248 508.42332244 -183.71655553 508.43496228 -185.30410385 508.45348549 C-187.52590737 508.47780005 -189.74636626 508.47692702 -191.96826172 508.4699707 C-193.23241913 508.47583694 -194.49657654 508.48170319 -195.79904175 508.48774719 C-199 508 -199 508 -201.37164307 506.21403503 C-202.98432249 504.0213163 -203.62953608 502.75082009 -204.08544922 500.10546875 C-204.22653107 499.33138672 -204.36761292 498.55730469 -204.51296997 497.75976562 C-204.65048676 496.91091797 -204.78800354 496.06207031 -204.9296875 495.1875 C-205.08984344 494.27806641 -205.24999939 493.36863281 -205.41500854 492.43164062 C-205.96175732 489.29062039 -206.48208885 486.14589887 -207 483 C-207.40634661 480.57938865 -207.81293185 478.15881734 -208.21972656 475.73828125 C-209.77053656 466.44912344 -211.28992011 457.15483998 -212.79638672 447.85839844 C-213.23532088 445.15117349 -213.67729343 442.4444771 -214.12252808 439.73828125 C-214.53692925 437.21823161 -214.94675356 434.6974238 -215.35134888 432.17578125 C-215.53849457 431.04269531 -215.72564026 429.90960938 -215.91845703 428.7421875 C-216.07959991 427.7507373 -216.2407428 426.75928711 -216.4067688 425.73779297 C-217.60944233 420.18739183 -219.75217926 416.85908862 -223.5 412.625 C-251.41879609 380.10751373 -261.19120365 341.19800375 -259 299 C-258.36682419 292.14213976 -256.9274158 285.60073905 -255 279 C-254.78569336 278.23880859 -254.57138672 277.47761719 -254.35058594 276.69335938 C-250.05401268 261.74603758 -243.32203614 248.1135115 -235 235 C-236.01707031 234.50693359 -236.01707031 234.50693359 -237.0546875 234.00390625 C-249.50601094 227.64027973 -260.05896306 218.39781171 -265 205 C-265.64549805 204.9906543 -266.29099609 204.98130859 -266.95605469 204.97167969 C-269.88813944 204.91790899 -272.81864008 204.8342766 -275.75 204.75 C-276.76578125 204.73582031 -277.7815625 204.72164062 -278.828125 204.70703125 C-286.314875 204.46075658 -286.314875 204.46075658 -289.671875 202.203125 C-291.06270108 199.89598998 -291.54174495 198.6716771 -291.5 196 C-291.51546875 195.01 -291.51546875 195.01 -291.53125 194 C-290.69370047 190.84687235 -289.72524801 189.84403009 -287 188 C-283.57031274 187.51047903 -280.20530925 187.62417641 -276.75 187.75 C-275.81414062 187.76804688 -274.87828125 187.78609375 -273.9140625 187.8046875 C-271.60832985 187.85174327 -269.30469055 187.91746287 -267 188 C-267.02618408 187.44650879 -267.05236816 186.89301758 -267.0793457 186.32275391 C-267.97528632 164.52531267 -267.97528632 164.52531267 -260.1328125 155.9609375 C-253.25060528 149.45363651 -246.49379565 147.43265311 -237.06860352 147.51953125 C-228.54582427 147.81854162 -222.83070397 150.72384473 -217.0625 156.875 C-211.13673389 163.83449927 -210.28376699 171.21133953 -210.59375 180.046875 C-211.37799966 187.67822743 -214.33175215 192.73935707 -219.875 197.9375 C-227.89954919 204.25311742 -234.96557499 204.59639622 -245 205 C-239.31933087 212.95293678 -231.53276771 217.23467265 -222 219 C-221.62548706 218.13979248 -221.62548706 218.13979248 -221.2434082 217.26220703 C-218.78823823 212.79536923 -214.77798911 209.44169277 -211.1875 205.875 C-210.32745361 205.01986816 -209.46740723 204.16473633 -208.58129883 203.28369141 C-202.07223294 196.8932376 -195.51540301 191.17269633 -188 186 C-187.1042627 185.36964844 -187.1042627 185.36964844 -186.19042969 184.7265625 C-184.3275341 183.42224617 -182.44958876 182.14401181 -180.5625 180.875 C-179.99490967 180.4836084 -179.42731934 180.0922168 -178.8425293 179.68896484 C-175.09494252 177.25633052 -172.44537769 176.41228481 -168 177 C-166.515 177.99 -166.515 177.99 -165 179 C-160.13323214 178.72816252 -155.93576516 176.13566401 -151.6875 173.9375 C-150.94693359 173.56044922 -150.20636719 173.18339844 -149.44335938 172.79492188 C-147.62612478 171.86871843 -145.81267596 170.93509371 -144 170 C-144.98953266 166.96785405 -146.01316782 163.96542329 -147.1484375 160.984375 C-158.9805668 129.78372832 -158.45763855 96.38432812 -145.1953125 65.73046875 C-139.5841843 53.34651395 -132.1461502 43.00193033 -123 33 C-122.28328125 32.20078125 -121.5665625 31.4015625 -120.828125 30.578125 C-110.13863213 19.24565511 -97.12641101 11.29409265 -83 5 C-81.94554687 4.51789062 -80.89109375 4.03578125 -79.8046875 3.5390625 C-55.59177725 -6.67866177 -25.04513203 -7.77447605 0 0 Z M-249 170 C-251.95768204 175.5120438 -251.17741145 181.90887341 -251 188 C-239.33592523 188.54854521 -239.33592523 188.54854521 -229.5625 182.8125 C-227.53468358 179.16243044 -227.06341662 176.02966966 -228 172 C-229.76148435 168.9840268 -231.82740878 166.58629561 -235 165 C-241.49684187 164.35031581 -244.38775715 164.94849593 -249 170 Z " fill="#D75A70" transform="translate(291,4)"/>
<path d="M0 0 C0.68513672 0.20898926 1.37027344 0.41797852 2.07617188 0.63330078 C18.66314737 5.8706736 32.8115849 14.80776157 46 26 C46.80050781 26.639375 47.60101563 27.27875 48.42578125 27.9375 C51.1038062 30.25595046 52.78133085 31.76295738 53.41015625 35.3203125 C53.43577617 37.59682558 53.27559183 39.74277168 53 42 C53 46.11966444 55.15840542 48.36653983 57.5 51.5625 C62 57.74493243 62 57.74493243 62 60 C63.216875 59.896875 64.43375 59.79375 65.6875 59.6875 C68.99289895 59.40738145 69.89432912 59.91655867 72.5625 62.0234375 C75.41937348 65.51211953 76.83025395 68.72541823 78.3125 72.9375 C78.57611328 73.62779297 78.83972656 74.31808594 79.11132812 75.02929688 C80.60573172 79.12435087 81.4707646 82.58255139 81 87 C79.125 89.875 79.125 89.875 77 92 C76.34 92 75.68 92 75 92 C75.144375 92.56847656 75.28875 93.13695313 75.4375 93.72265625 C76.61545505 98.62262205 77.21427527 102.9645312 77 108 C77.94875 108.103125 78.8975 108.20625 79.875 108.3125 C83 109 83 109 85 112 C85.25651747 114.86046812 85.38074277 117.57530163 85.375 120.4375 C85.37338867 121.2728125 85.37177734 122.108125 85.37011719 122.96875 C85.11725783 136.27609327 82.27448038 149.76769444 77 162 C79.76605639 163.71677553 79.76605639 163.71677553 83 165 C86.33309489 163.84952346 88.22427565 161.88303173 90.5625 159.3125 C102.79213687 146.81109342 120.16475154 139.902561 137.5 139.5625 C138.18280029 139.54018311 138.86560059 139.51786621 139.5690918 139.49487305 C142.7166065 139.50936329 144.631129 139.72936106 147.19458008 141.6101532 C149.61514269 144.81426862 149.44574716 146.74336693 149.35546875 150.73364258 C149.34653091 151.4026358 149.33759308 152.07162903 149.3283844 152.76089478 C149.30761086 154.21185524 149.27826716 155.66271276 149.24133301 157.11335182 C149.18679709 159.42431713 149.16424386 161.73353713 149.15136719 164.04508972 C149.11230736 170.61571593 149.04296802 177.18468233 148.88720703 183.75366211 C147.39168893 205.41960803 147.39168893 205.41960803 155.796875 224.359375 C157.79815755 226.3277108 159.88810339 228.1461707 162 230 C166.95734223 236.4806987 170.62088675 243.99667617 174.3125 251.25 C174.63831055 251.88736084 174.96412109 252.52472168 175.29980469 253.18139648 C177.67478731 257.9814069 179.41328978 262.88898349 181 268 C182.06959961 267.97905273 183.13919922 267.95810547 184.24121094 267.93652344 C188.21438173 267.86405374 192.18749425 267.81817537 196.16113281 267.78027344 C197.87998279 267.76017372 199.59876452 267.73288911 201.31738281 267.69824219 C203.78988489 267.64964966 206.2614821 267.62701565 208.734375 267.609375 C209.88459137 267.57840729 209.88459137 267.57840729 211.05804443 267.54681396 C214.32960489 267.54544201 216.50089368 267.64852118 219.21372986 269.5589447 C221.61751467 272.8438743 221.49599402 275.60415143 221.33911133 279.51098633 C221.32337224 280.2569019 221.30763315 281.00281748 221.29141712 281.77133656 C221.04802867 290.80807397 220.32458658 299.81819298 219.57421875 308.82421875 C219.4242188 310.66882876 219.27446896 312.51345912 219.12495422 314.35810852 C218.81284422 318.18634092 218.49524886 322.01407085 218.17407227 325.84155273 C217.76408496 330.73710865 217.37205331 335.63392605 216.98445415 340.53129864 C216.68158363 344.32473289 216.3673627 348.11716397 216.04990578 351.90940285 C215.90044753 353.71553173 215.75494476 355.52199266 215.61356163 357.32877159 C215.4152571 359.84622707 215.20118433 362.3618721 214.9831543 364.87768555 C214.92848495 365.61486816 214.87381561 366.35205078 214.81748962 367.11157227 C214.40191653 371.66451486 213.3899637 375.09478406 211 379 C207.88045872 380.55977064 204.57040616 380.12104126 201.1484375 380.09765625 C200.37440582 380.0962413 199.60037415 380.09482635 198.80288696 380.09336853 C196.32688558 380.08776403 193.85097412 380.07521083 191.375 380.0625 C189.69791797 380.05748558 188.02083453 380.05292257 186.34375 380.04882812 C182.22913194 380.03779315 178.11458122 380.02052554 174 380 C173.71261963 380.91370361 173.42523926 381.82740723 173.12915039 382.76879883 C172.22620734 385.35268019 171.35552943 387.39587216 169.93359375 389.69921875 C169.53487061 390.34584473 169.13614746 390.9924707 168.7253418 391.65869141 C168.300354 392.32819824 167.87536621 392.99770508 167.4375 393.6875 C166.99639893 394.38794434 166.55529785 395.08838867 166.10083008 395.81005859 C161.51687492 402.95994756 156.32566449 409.48977321 150.47924805 415.66064453 C147.65949409 419.06852332 146.86318772 422.55393388 146.2265625 426.859375 C146.09722321 427.6254306 145.96788391 428.39148621 145.83462524 429.18075562 C145.41344666 431.70124079 145.01950682 434.2252157 144.625 436.75 C144.33362475 438.51577997 144.04029676 440.28123872 143.74511719 442.04638672 C142.96744563 446.72484246 142.21238126 451.40662939 141.46472168 456.08996582 C140.2263108 463.84475354 138.96886741 471.59639463 137.70037842 479.34631348 C137.25654531 482.08461758 136.8260664 484.82478248 136.39697266 487.56542969 C136.12444359 489.25462513 135.85151503 490.94375619 135.578125 492.6328125 C135.46272369 493.39363129 135.34732239 494.15445007 135.22842407 494.93832397 C134.48806562 499.42555431 133.34788788 503.09361328 131 507 C128.07881347 508.46059326 125.4893976 508.15156549 122.22705078 508.17700195 C121.18286484 508.18685875 121.18286484 508.18685875 120.11758423 508.19691467 C117.81015927 508.21665198 115.50279936 508.22831041 113.1953125 508.23828125 C112.01403589 508.24439454 112.01403589 508.24439454 110.80889511 508.25063133 C106.64164237 508.27149273 102.47442258 508.2857948 98.30712891 508.29516602 C94.00045458 508.30623794 89.6942959 508.34064613 85.38780403 508.38033772 C82.07810497 508.40646576 78.76852955 508.41485436 75.45873642 508.41844749 C73.87108752 508.42332244 72.28344447 508.43496228 70.69589615 508.45348549 C68.47409263 508.47780005 66.25363374 508.47692702 64.03173828 508.4699707 C62.76758087 508.47583694 61.50342346 508.48170319 60.20095825 508.48774719 C56.4294153 507.91305695 55.28076952 506.99487833 53 504 C52.17871094 501.66577148 52.17871094 501.66577148 51.734375 499.12109375 C51.56679688 498.20005859 51.39921875 497.27902344 51.2265625 496.33007812 C51.06929688 495.37552734 50.91203125 494.42097656 50.75 493.4375 C50.57726562 492.47908203 50.40453125 491.52066406 50.2265625 490.53320312 C49 483.5875496 49 483.5875496 49 480 C48.4738208 480.16081055 47.9476416 480.32162109 47.40551758 480.48730469 C37.46083246 483.4983075 27.5226606 486.28974196 17.3125 488.25 C16.16068237 488.47574707 16.16068237 488.47574707 14.9855957 488.70605469 C-1.52192725 491.72997059 -17.88065687 492.37366386 -34.625 492.3125 C-35.68681488 492.31034485 -36.74862976 492.3081897 -37.84262085 492.30596924 C-53.08519909 492.25629623 -68.00597356 492.00503334 -83 489 C-84.13211914 488.77473633 -85.26423828 488.54947266 -86.43066406 488.31738281 C-97.46213381 486.07235106 -108.37341749 483.75450234 -119 480 C-119.11275269 480.90709717 -119.11275269 480.90709717 -119.2277832 481.83251953 C-119.57806593 484.5982439 -119.94512938 487.36149567 -120.3125 490.125 C-120.43044922 491.07632812 -120.54839844 492.02765625 -120.66992188 493.0078125 C-121.37126515 498.18696283 -122.13349644 502.50496871 -125 507 C-127.92118653 508.46059326 -130.5106024 508.15156549 -133.77294922 508.17700195 C-134.81713516 508.18685875 -134.81713516 508.18685875 -135.88241577 508.19691467 C-138.18984073 508.21665198 -140.49720064 508.22831041 -142.8046875 508.23828125 C-143.98596411 508.24439454 -143.98596411 508.24439454 -145.19110489 508.25063133 C-149.35835763 508.27149273 -153.52557742 508.2857948 -157.69287109 508.29516602 C-161.99954542 508.30623794 -166.3057041 508.34064613 -170.61219597 508.38033772 C-173.92189503 508.40646576 -177.23147045 508.41485436 -180.54126358 508.41844749 C-182.12891248 508.42332244 -183.71655553 508.43496228 -185.30410385 508.45348549 C-187.52590737 508.47780005 -189.74636626 508.47692702 -191.96826172 508.4699707 C-193.23241913 508.47583694 -194.49657654 508.48170319 -195.79904175 508.48774719 C-199 508 -199 508 -201.37164307 506.21403503 C-202.98432249 504.0213163 -203.62953608 502.75082009 -204.08544922 500.10546875 C-204.22653107 499.33138672 -204.36761292 498.55730469 -204.51296997 497.75976562 C-204.65048676 496.91091797 -204.78800354 496.06207031 -204.9296875 495.1875 C-205.08984344 494.27806641 -205.24999939 493.36863281 -205.41500854 492.43164062 C-205.96175732 489.29062039 -206.48208885 486.14589887 -207 483 C-207.40634661 480.57938865 -207.81293185 478.15881734 -208.21972656 475.73828125 C-209.77053656 466.44912344 -211.28992011 457.15483998 -212.79638672 447.85839844 C-213.23532088 445.15117349 -213.67729343 442.4444771 -214.12252808 439.73828125 C-214.53692925 437.21823161 -214.94675356 434.6974238 -215.35134888 432.17578125 C-215.53849457 431.04269531 -215.72564026 429.90960938 -215.91845703 428.7421875 C-216.07959991 427.7507373 -216.2407428 426.75928711 -216.4067688 425.73779297 C-217.60944233 420.18739183 -219.75217926 416.85908862 -223.5 412.625 C-251.41879609 380.10751373 -261.19120365 341.19800375 -259 299 C-258.36682419 292.14213976 -256.9274158 285.60073905 -255 279 C-254.78569336 278.23880859 -254.57138672 277.47761719 -254.35058594 276.69335938 C-250.05401268 261.74603758 -243.32203614 248.1135115 -235 235 C-236.01707031 234.50693359 -236.01707031 234.50693359 -237.0546875 234.00390625 C-249.50601094 227.64027973 -260.05896306 218.39781171 -265 205 C-265.64549805 204.9906543 -266.29099609 204.98130859 -266.95605469 204.97167969 C-269.88813944 204.91790899 -272.81864008 204.8342766 -275.75 204.75 C-276.76578125 204.73582031 -277.7815625 204.72164062 -278.828125 204.70703125 C-286.314875 204.46075658 -286.314875 204.46075658 -289.671875 202.203125 C-291.06270108 199.89598998 -291.54174495 198.6716771 -291.5 196 C-291.51546875 195.01 -291.51546875 195.01 -291.53125 194 C-290.69370047 190.84687235 -289.72524801 189.84403009 -287 188 C-283.57031274 187.51047903 -280.20530925 187.62417641 -276.75 187.75 C-275.81414062 187.76804688 -274.87828125 187.78609375 -273.9140625 187.8046875 C-271.60832985 187.85174327 -269.30469055 187.91746287 -267 188 C-267.02618408 187.44650879 -267.05236816 186.89301758 -267.0793457 186.32275391 C-267.97528632 164.52531267 -267.97528632 164.52531267 -260.1328125 155.9609375 C-253.25060528 149.45363651 -246.49379565 147.43265311 -237.06860352 147.51953125 C-228.54582427 147.81854162 -222.83070397 150.72384473 -217.0625 156.875 C-211.13673389 163.83449927 -210.28376699 171.21133953 -210.59375 180.046875 C-211.37799966 187.67822743 -214.33175215 192.73935707 -219.875 197.9375 C-227.89954919 204.25311742 -234.96557499 204.59639622 -245 205 C-239.31933087 212.95293678 -231.53276771 217.23467265 -222 219 C-221.62548706 218.13979248 -221.62548706 218.13979248 -221.2434082 217.26220703 C-218.78823823 212.79536923 -214.77798911 209.44169277 -211.1875 205.875 C-210.32745361 205.01986816 -209.46740723 204.16473633 -208.58129883 203.28369141 C-202.07223294 196.8932376 -195.51540301 191.17269633 -188 186 C-187.1042627 185.36964844 -187.1042627 185.36964844 -186.19042969 184.7265625 C-184.3275341 183.42224617 -182.44958876 182.14401181 -180.5625 180.875 C-179.99490967 180.4836084 -179.42731934 180.0922168 -178.8425293 179.68896484 C-175.09856445 177.25868158 -172.44238051 176.39849291 -168 177 C-164.67121368 179.46040728 -163.20698052 180.89610387 -162.4375 185 C-163.33478798 189.78553589 -166.02062386 192.26378858 -169.84765625 195.140625 C-170.90855469 195.83671875 -171.96945313 196.5328125 -173.0625 197.25 C-179.35952647 201.48107755 -185.24917698 206.04267603 -191 211 C-191.97839844 211.84304687 -192.95679688 212.68609375 -193.96484375 213.5546875 C-219.43465337 235.95629074 -238.91505497 268.80561561 -242 303 C-242.80740171 319.29125392 -242.29792267 336.44868325 -237 352 C-236.77715332 352.67611328 -236.55430664 353.35222656 -236.32470703 354.04882812 C-229.71643729 373.91193381 -219.79141246 392.20797306 -204.9375 407.1875 C-197.88179769 415.0631235 -197.96952568 429.47334688 -196.30078125 439.63671875 C-196.05875566 441.09313515 -195.81641453 442.54949915 -195.57377625 444.0058136 C-195.07134625 447.02649904 -194.57156708 450.04760578 -194.07397461 453.0690918 C-193.4356949 456.94449359 -192.79232733 460.81902919 -192.14722919 464.6933012 C-191.64916289 467.68611634 -191.15285818 470.67922126 -190.65718651 473.67243385 C-190.4202937 475.10266631 -190.18305341 476.53284125 -189.94545937 477.96295738 C-189.61602385 479.94858026 -189.28902924 481.93460765 -188.9621582 483.9206543 C-188.6826104 485.61390083 -188.6826104 485.61390083 -188.39741516 487.34135437 C-188 490 -188 490 -188 492 C-171.5 492 -155 492 -138 492 C-136.84602044 483.67096949 -136.84602044 483.67096949 -135.72753906 475.3371582 C-135.4988916 473.77227661 -135.4988916 473.77227661 -135.265625 472.17578125 C-135.11899414 471.11270752 -134.97236328 470.04963379 -134.82128906 468.9543457 C-133.85097213 465.46391609 -132.55069535 463.55563743 -130 461 C-123.13863903 460.00033151 -117.13272603 462.19706333 -110.625 464.25 C-59.20433317 479.74120082 -2.75544669 479.65616799 48.203125 461.8828125 C50.79476091 461.06478217 52.92041243 460.6437332 55.625 460.5625 C56.35976563 460.52253906 57.09453125 460.48257812 57.8515625 460.44140625 C61.13960676 461.29629776 62.11856645 463.24185526 64 466 C64.82128906 468.9543457 64.82128906 468.9543457 65.265625 472.17578125 C65.41805664 473.21903564 65.57048828 474.26229004 65.72753906 475.3371582 C65.98615723 477.30495239 65.98615723 477.30495239 66.25 479.3125 C67.11625 485.5928125 67.11625 485.5928125 68 492 C84.5 492 101 492 118 492 C118.845625 486.59625 119.69125 481.1925 120.5625 475.625 C121.44824219 470.09521484 121.44824219 470.09521484 121.84136963 467.6534729 C123.03610169 460.22819178 124.18451469 452.80057256 125.23219299 445.35299683 C125.76989025 441.56619552 126.33666638 437.78403996 126.90768433 434.00213623 C127.17525075 432.18308797 127.42998748 430.3621013 127.6711731 428.53936768 C129.2098003 416.97175763 131.0398965 410.08678566 140 402 C141.99266366 399.62475673 143.81204198 397.13916709 145.625 394.625 C146.08592041 393.99070068 146.54684082 393.35640137 147.02172852 392.70288086 C152.07525747 385.64879419 156.47781473 378.28491114 160.1875 370.4375 C162.00280863 366.99467329 162.69231185 365.83573254 166 364 C169.39160156 363.65942383 169.39160156 363.65942383 173.390625 363.70703125 C174.09523865 363.71127609 174.79985229 363.71552094 175.52581787 363.71989441 C177.76760712 363.73663462 180.00848431 363.77427596 182.25 363.8125 C183.77342448 363.82755296 185.29686311 363.8412403 186.8203125 363.85351562 C190.54716941 363.88652209 194.27349563 363.93827146 198 364 C197.98477295 363.3935112 197.9695459 362.7870224 197.95385742 362.16215515 C197.83889818 353.66831909 198.54847748 345.28125083 199.3125 336.83203125 C199.44743936 335.30079259 199.58195342 333.76951639 199.71606445 332.23820496 C200.06694286 328.24472394 200.42352409 324.25177284 200.78137207 320.25891113 C201.1468152 316.16966164 201.50675673 312.07992816 201.8671875 307.99023438 C202.57279857 299.99301096 203.28444643 291.99633992 204 284 C203.05680908 284.02618408 202.11361816 284.05236816 201.1418457 284.0793457 C197.62866855 284.16476922 194.11660092 284.22734298 190.6027832 284.2746582 C189.08470199 284.29974109 187.56674082 284.3338166 186.04907227 284.37719727 C183.86184035 284.43813293 181.67620961 284.46626895 179.48828125 284.48828125 C178.17384033 284.51446533 176.85939941 284.54064941 175.50512695 284.56762695 C171.13600166 283.86008246 169.73972759 282.39087975 167 279 C165.82495117 276.81860352 165.82495117 276.81860352 165.04296875 274.62890625 C164.7394751 273.81421875 164.43598145 272.99953125 164.12329102 272.16015625 C163.81447998 271.30292969 163.50566895 270.44570313 163.1875 269.5625 C156.71575853 252.58744042 146.98960383 239.01106184 135.53125 224.9609375 C132.81260662 221.4794095 132.87788341 219.27946029 132.88647461 214.89794922 C132.88655014 213.61677216 132.88662567 212.33559509 132.88670349 211.01559448 C132.89181052 209.61195843 132.89702652 208.20832277 132.90234375 206.8046875 C132.90420854 205.37265065 132.90563216 203.94061316 132.90663147 202.50857544 C132.91045181 198.73726646 132.92027798 194.96599593 132.93133545 191.19470215 C132.94155995 187.34725464 132.94613132 183.49980093 132.95117188 179.65234375 C132.96190067 172.10154497 132.97897131 164.55077787 133 157 C131.07687614 157.46330637 129.15489096 157.93134094 127.23339844 158.40136719 C126.16297302 158.66149597 125.09254761 158.92162476 123.98968506 159.18963623 C109.92058202 163.00311195 100.5740406 172.83878007 92 184 C91 185 91 185 87.4375 185.28125 C82.67440109 185.22171126 79.17802196 183.65130753 75 181.5 C74.32066406 181.16613281 73.64132812 180.83226562 72.94140625 180.48828125 C71.28728726 179.67287048 69.64258493 178.83840272 68 178 C67.48953125 178.78761719 66.9790625 179.57523438 66.453125 180.38671875 C55.94291692 196.13339575 43.2725702 209.16459164 27 219 C27.82201904 219.01458252 28.64403809 219.02916504 29.4909668 219.04418945 C33.22361323 219.11876333 36.95537459 219.21539512 40.6875 219.3125 C42.62786133 219.34633789 42.62786133 219.34633789 44.60742188 219.38085938 C45.85458984 219.41630859 47.10175781 219.45175781 48.38671875 219.48828125 C49.53358154 219.51446533 50.68044434 219.54064941 51.86206055 219.56762695 C55.30006512 220.04134563 57.22800202 220.94532696 60 223 C61.40457737 225.80915474 61.24895157 227.88810534 61 231 C59.22015595 234.1359157 58.47691793 234.84102736 55 236 C52.59110479 236.10372769 50.21065597 236.15216746 47.80142212 236.15390015 C46.69418449 236.16047353 46.69418449 236.16047353 45.56457841 236.1671797 C43.08422809 236.18056414 40.60391328 236.18674569 38.12353516 236.19287109 C36.34797505 236.20077217 34.57241655 236.20904113 32.79685974 236.21765137 C26.96094292 236.24386493 21.12501893 236.25917566 15.2890625 236.2734375 C13.28108083 236.27879695 11.27309922 236.28417445 9.26511765 236.28956985 C0.91483749 236.3111952 -7.43544074 236.32993346 -15.78574181 236.34119225 C-27.7599729 236.35744288 -39.73388011 236.39065164 -51.7079891 236.44759309 C-60.12419404 236.48625423 -68.54031221 236.50582024 -76.95660365 236.51111281 C-81.98541074 236.51477075 -87.01387233 236.5268394 -92.04258347 236.55921555 C-96.77210945 236.58922984 -101.50107964 236.59563184 -106.23068047 236.58383179 C-107.96694063 236.58361051 -109.70322609 236.59196004 -111.43939781 236.60948563 C-113.80942283 236.63210858 -116.17742053 236.62391651 -118.54745483 236.60800171 C-119.23510591 236.6218838 -119.92275698 236.63576588 -120.63124597 236.65006864 C-124.41423228 236.58744176 -125.93733099 236.05033055 -128.92672157 233.64949989 C-131 231 -131 231 -131.625 228 C-130.77954701 223.94182566 -129.1879456 222.60150806 -126 220 C-122.77026367 219.34057617 -122.77026367 219.34057617 -119.16796875 219.29296875 C-117.87568359 219.26396484 -116.58339844 219.23496094 -115.25195312 219.20507812 C-113.89713781 219.1986898 -112.54231987 219.19283712 -111.1875 219.1875 C-109.8131116 219.16434252 -108.43875856 219.13897455 -107.06445312 219.11132812 C-103.70934485 219.05246658 -100.35554126 219.01617663 -97 219 C-97.87470947 218.4222583 -98.74941895 217.8445166 -99.65063477 217.24926758 C-127.56357435 198.68095133 -147.2458288 170.95901834 -154.109375 137.98828125 C-155.34696465 130.85714522 -155.39787723 123.72030755 -155.375 116.5 C-155.3737915 115.79379517 -155.37258301 115.08759033 -155.37133789 114.35998535 C-155.22698211 83.21258539 -143.96994447 55.93204454 -123 33 C-122.28328125 32.20078125 -121.5665625 31.4015625 -120.828125 30.578125 C-110.13863213 19.24565511 -97.12641101 11.29409265 -83 5 C-81.94554687 4.51789062 -80.89109375 4.03578125 -79.8046875 3.5390625 C-55.59177725 -6.67866177 -25.04513203 -7.77447605 0 0 Z M-249 170 C-251.95768204 175.5120438 -251.17741145 181.90887341 -251 188 C-239.33592523 188.54854521 -239.33592523 188.54854521 -229.5625 182.8125 C-227.53468358 179.16243044 -227.06341662 176.02966966 -228 172 C-229.76148435 168.9840268 -231.82740878 166.58629561 -235 165 C-241.49684187 164.35031581 -244.38775715 164.94849593 -249 170 Z " fill="#010000" transform="translate(291,4)"/>
<path d="M0 0 C0.68626465 0.22461914 1.3725293 0.44923828 2.07958984 0.68066406 C16.04268191 5.37718512 27.53177356 13.08451282 38.20727539 23.10205078 C41.73598639 26.31858431 44.19234044 27.84491421 49 28 C51.76864953 27.63141012 51.76864953 27.63141012 54 27 C55.48722742 28.9108619 56.9647404 30.82803755 58.4375 32.75 C58.85837891 33.28882813 59.27925781 33.82765625 59.71289062 34.3828125 C61.83961234 37.17307139 63.52905212 39.47217224 64 43 C65.8253125 42.8453125 65.8253125 42.8453125 67.6875 42.6875 C70.99289895 42.40738145 71.89432912 42.91655867 74.5625 45.0234375 C77.41937348 48.51211953 78.83025395 51.72541823 80.3125 55.9375 C80.57611328 56.62779297 80.83972656 57.31808594 81.11132812 58.02929688 C82.60573172 62.12435087 83.4707646 65.58255139 83 70 C81.125 72.875 81.125 72.875 79 75 C78.34 75 77.68 75 77 75 C77.2165625 75.85271484 77.2165625 75.85271484 77.4375 76.72265625 C78.61545505 81.62262205 79.21427527 85.9645312 79 91 C78.030625 91.45375 77.06125 91.9075 76.0625 92.375 C72.92920418 93.65786221 72.92920418 93.65786221 72 96 C71.75617697 97.80370511 71.55951 99.61389136 71.38671875 101.42578125 C68.94378589 125.6335085 68.94378589 125.6335085 65 135 C64.55527344 136.06758545 64.55527344 136.06758545 64.1015625 137.15673828 C59.40089933 148.25021227 54.0996663 158.02431098 46 167 C45.50483887 167.54881836 45.00967773 168.09763672 44.49951172 168.66308594 C26.12907991 188.65460668 0.66409687 202.12899498 -26.8046875 203.37109375 C-45.86365114 203.75451745 -63.0773069 201.06572845 -80 192 C-80.9384375 191.53851563 -81.876875 191.07703125 -82.84375 190.6015625 C-107.6387752 177.99510306 -124.7401703 154.31135193 -133.375 128.375 C-140.68832642 102.16352037 -138.44066727 73.13525472 -125.015625 49.24853516 C-110.11443812 23.74832309 -87.69480515 5.65194804 -59 -2 C-58.07960938 -2.2990625 -57.15921875 -2.598125 -56.2109375 -2.90625 C-38.02095882 -8.20144595 -17.70335687 -5.93659663 0 0 Z " fill="#DE9340" transform="translate(289,21)"/>
<path d="M0 0 C15.77330424 12.25268421 26.64139493 28.3494086 30.25 48.25 C32.11498745 68.17407672 27.9763244 86.86188706 15.875 103.0625 C14.69000589 104.47820092 13.48103048 105.87414241 12.25 107.25 C11.59515625 107.99765625 10.9403125 108.7453125 10.265625 109.515625 C0.8564506 119.61160045 -10.64389679 125.35912561 -23.75 129.25 C-24.9565625 129.61931641 -24.9565625 129.61931641 -26.1875 129.99609375 C-45.23007269 134.78979694 -64.18403543 130.00286403 -80.75 120.25 C-84.30118516 117.79564904 -87.54651399 115.13985801 -90.75 112.25 C-91.44609375 111.64671875 -92.1421875 111.0434375 -92.859375 110.421875 C-102.599742 101.43657521 -108.0292433 89.78307521 -111.75 77.25 C-111.99621094 76.445625 -112.24242187 75.64125 -112.49609375 74.8125 C-117.26284926 55.87697465 -112.54371996 36.69180155 -102.9609375 20.13671875 C-99.59103608 14.88619493 -95.2284192 10.55199663 -90.75 6.25 C-90.16734375 5.65960938 -89.5846875 5.06921875 -88.984375 4.4609375 C-65.08248648 -18.11306832 -26.25345376 -18.27772097 0 0 Z " fill="#FACF62" transform="translate(297.75,60.75)"/>
<path d="M0 0 C19.52737578 15.14421482 33.2451069 35.4982863 36.90625 60.25390625 C39.29190283 85.53157536 32.45636088 109.86552923 16.3046875 129.4765625 C1.71448492 146.46308246 -18.82418859 157.48061093 -41.09375 160.25390625 C-68.0187547 162.13101786 -90.62135818 154.74375726 -111.09375 137.25390625 C-111.76792969 136.6815625 -112.44210938 136.10921875 -113.13671875 135.51953125 C-128.96817105 120.88358908 -138.31235069 97.94703647 -139.3671875 76.64453125 C-140.06355501 51.81467713 -132.15640365 31.05572104 -116.09375 12.25390625 C-115.52140625 11.57972656 -114.9490625 10.90554687 -114.359375 10.2109375 C-85.24646502 -21.2800072 -34.25755926 -24.26577115 0 0 Z M-99.09375 18.25390625 C-99.84140625 18.90875 -100.5890625 19.56359375 -101.359375 20.23828125 C-113.7231601 31.76099254 -122.53489552 48.73856383 -123.3828125 65.75390625 C-124.0063099 88.21574125 -117.38878445 107.31452787 -101.96875 123.87890625 C-94.23074933 131.33576849 -84.25524912 137.73646425 -74.09375 141.25390625 C-72.83304688 141.69863281 -72.83304688 141.69863281 -71.546875 142.15234375 C-52.77912277 147.80340727 -32.19297636 144.13583655 -15.09375 135.25390625 C4.18731309 123.47244195 15.24273396 106.18112044 20.50927734 84.42993164 C24.00189485 65.2849748 18.7886562 46.71085422 8.21484375 30.69140625 C6.53442631 28.44565115 4.77626815 26.34392653 2.90625 24.25390625 C1.92398438 23.13242188 1.92398438 23.13242188 0.921875 21.98828125 C-8.4872994 11.8923058 -19.98764679 6.14478064 -33.09375 2.25390625 C-33.898125 2.00769531 -34.7025 1.76148437 -35.53125 1.5078125 C-57.9367142 -4.13245193 -82.09673174 3.04604781 -99.09375 18.25390625 Z " fill="#030201" transform="translate(307.09375,47.74609375)"/>
<path d="M0 0 C2.875 2.3125 2.875 2.3125 5 5 C5 5.99 5 6.98 5 8 C6.175625 8.0825 7.35125 8.165 8.5625 8.25 C16.26657327 9.2672632 20.77222482 13.23599905 25.5546875 19.05859375 C29.03529326 23.73389392 29.77306857 28.28852324 29 34 C26.86111111 38.56944444 26.86111111 38.56944444 24 40 C20.79960528 40.27829519 18.72375281 40.41299649 15.8984375 38.80078125 C13.01357541 36.06431742 12.74981187 33.05672292 11.90625 29.27734375 C11.21589317 26.89767757 11.21589317 26.89767757 9.24609375 25.87866211 C5.13939633 24.27213993 0.85824541 24.63091349 -3.5 24.625 C-4.92505859 24.58826172 -4.92505859 24.58826172 -6.37890625 24.55078125 C-11.78173267 24.50249149 -11.78173267 24.50249149 -16.6328125 26.6171875 C-18.42743403 29.74495646 -18.46562239 31.90805819 -18.375 35.5 C-18.36210937 36.6240625 -18.34921875 37.748125 -18.3359375 38.90625 C-18.01785249 41.83559106 -17.61768376 43.56773789 -16 46 C-13.53276104 47.23361948 -11.81262057 47.15724672 -9.0546875 47.2109375 C-7.56195313 47.25347656 -7.56195313 47.25347656 -6.0390625 47.296875 C-3.95329097 47.34837553 -1.86733135 47.39281232 0.21875 47.4296875 C8.22592073 47.67669534 15.01991095 48.67727418 21.25 54.1875 C21.87390625 54.71730469 22.4978125 55.24710938 23.140625 55.79296875 C28.21304847 61.81380753 29.70572893 67.60854823 29.5625 75.375 C29.55226807 76.20990967 29.54203613 77.04481934 29.53149414 77.9050293 C29.2383987 86.42472413 26.93398893 92.50620088 20.6875 98.4375 C15.93172599 102.10297648 11.05817795 104 5 104 C4.731875 104.94875 4.46375 105.8975 4.1875 106.875 C3 110 3 110 0 112 C-3.31309774 112.35245721 -5.33010093 112.34400223 -8.3125 110.8125 C-10.37860258 108.59335278 -10.67842796 106.97454134 -11 104 C-11.556875 103.99742187 -12.11375 103.99484375 -12.6875 103.9921875 C-20.19138312 103.61192315 -24.30097819 100.65207991 -29.5390625 95.48046875 C-33.49302061 91.09874324 -35.02455098 86.72965337 -35.4375 80.9375 C-35 77 -35 77 -32.875 74 C-30 72 -30 72 -27 71.375 C-22.84405427 72.24082203 -21.55421809 73.61738685 -19 77 C-18.07522262 79.34781844 -17.33312409 81.67357699 -16.67578125 84.109375 C-16.17386375 86.20128328 -16.17386375 86.20128328 -14 87 C-10.5470921 87.23984126 -7.08531801 87.18519312 -3.625 87.1875 C-2.6659375 87.19974609 -1.706875 87.21199219 -0.71875 87.22460938 C0.20679688 87.22654297 1.13234375 87.22847656 2.0859375 87.23046875 C2.9320459 87.23457764 3.7781543 87.23868652 4.64990234 87.24291992 C7.24645688 86.97452477 8.83211836 86.44877208 11 85 C12.11630207 81.65109379 12.16765424 79.02460739 12.1875 75.5 C12.20167969 74.3553125 12.21585937 73.210625 12.23046875 72.03125 C12.23549057 68.82237615 12.23549057 68.82237615 10 66 C6.9848551 64.9949517 4.89217311 64.86183919 1.73828125 64.82421875 C0.70123047 64.80037109 -0.33582031 64.77652344 -1.40429688 64.75195312 C-3.57337486 64.70937158 -5.742703 64.67791306 -7.91210938 64.65820312 C-15.92060574 64.44550063 -21.37659756 63.16328785 -27.4609375 57.8515625 C-28.40839844 56.74941406 -28.40839844 56.74941406 -29.375 55.625 C-30.02210938 54.89539063 -30.66921875 54.16578125 -31.3359375 53.4140625 C-35.20234797 47.8050445 -35.36465241 42.2060668 -35.375 35.625 C-35.39949219 34.81289062 -35.42398438 34.00078125 -35.44921875 33.1640625 C-35.4836792 25.99628797 -33.58308468 20.91116879 -28.81640625 15.5390625 C-27.70072266 14.59160156 -27.70072266 14.59160156 -26.5625 13.625 C-25.82128906 12.97789063 -25.08007812 12.33078125 -24.31640625 11.6640625 C-19.90783404 8.49702749 -16.38650391 7.74946493 -11 8 C-10.9175 7.236875 -10.835 6.47375 -10.75 5.6875 C-10 3 -10 3 -8.3125 1.1875 C-5.21737291 -0.40188959 -3.43979993 -0.56159999 0 0 Z " fill="#030201" transform="translate(259,64)"/>
<path d="M0 0 C4.58441594 3.72884842 6.41015823 7.53163697 8.3125 12.9375 C8.57611328 13.62779297 8.83972656 14.31808594 9.11132812 15.02929688 C10.6088616 19.13292756 11.43302528 22.57280124 11 27 C9.5 29.875 9.5 29.875 7 32 C4.21027184 32.65741545 1.7639018 32.78274563 -1 32 C-5.1504263 28.86939274 -6.50569628 24.91839203 -8.1875 20.1875 C-8.44724609 19.50107422 -8.70699219 18.81464844 -8.97460938 18.10742188 C-10.56111838 13.77424353 -11.7085083 9.64100507 -12 5 C-8.67361119 0.11436644 -5.79807152 -1.03536991 0 0 Z " fill="#020100" transform="translate(361,64)"/>
<path d="M0 0 C4.18421805 0.87171209 5.42961969 2.20639419 8 5.625 C8.68745025 9.14220473 8.60807733 12.55353546 8.5 16.125 C8.50386719 17.53072266 8.50386719 17.53072266 8.5078125 18.96484375 C8.43739363 23.92937377 8.31960315 27.65449427 5 31.625 C2.19084526 33.02957737 0.11189466 32.87395157 -3 32.625 C-6.1359157 30.84515595 -6.84102736 30.10191793 -8 26.625 C-8.3042547 23.17190178 -8.3234943 19.71492872 -8.375 16.25 C-8.41238281 15.30382812 -8.44976562 14.35765625 -8.48828125 13.3828125 C-8.54802825 8.65616069 -8.56587514 6.38202359 -5.6640625 2.5 C-3 0.625 -3 0.625 0 0 Z " fill="#040102" transform="translate(408,255.375)"/>
</svg>
